<svg viewBox="0 0 24 24" xmlns="http://www.w3.org/2000/svg" xmlns:xlink="http://www.w3.org/1999/xlink" overflow="hidden"><path d="M11.2574 0.0039C10.8874 0.014 10.5221 0.0449 10.1571 0.0989 9.6164 0.153 9.0766 0.4236 8.482 0.694 7.725 1.0184 6.9673 1.3426 6.2644 1.3967 5.0748 1.7752 4.6964 2.3157 4.3719 2.7483 4.3719 2.8023 4.3179 2.8562 4.3179 2.8562 3.8854 3.7212 3.8306 4.5862 3.9929 5.4514 4.155 5.9921 4.3715 6.4796 4.5337 6.9662 4.9122 7.9936 5.2915 8.9669 5.4537 10.1024 5.6159 10.4268 5.7772 10.8595 5.8853 11.2921 6.1557 12.1572 6.4273 13.1304 7.2383 13.8873L7.244 13.8845C7.2615 13.9028 7.2741 13.9232 7.2922 13.9413 7.2994 13.9377 7.3063 13.935 7.3135 13.9314L7.2922 13.3465C7.9411 12.3732 8.8595 11.7244 10.1572 11.454 10.6767 11.3447 11.2382 11.3043 11.8197 11.3262 12.4258 11.3424 13.0287 11.4214 13.6185 11.5619 15.0784 11.9404 16.2135 12.6977 16.2677 13.3465 16.295 13.7014 16.3075 14.0417 16.3003 14.3829 16.2993 14.4469 16.2957 14.5114 16.2933 14.5759L16.4295 14.6441C16.5045 14.6066 16.5719 14.5371 16.6354 14.4539 16.6362 14.4529 16.6374 14.4519 16.6382 14.4511 16.64 14.4488 16.6421 14.445 16.6439 14.4426 16.6835 14.389 16.7186 14.319 16.7546 14.2495 16.7734 14.2118 16.7918 14.1629 16.81 14.1203 17.0148 13.6581 17.172 12.9667 17.348 12.1568 17.4021 11.8865 17.4572 11.6704 17.5113 11.4541 17.9439 10.4808 18.5379 9.6159 19.1326 8.8049 20.1059 7.4531 21.0254 6.2087 20.9172 4.7488 19.1332 1.288 16.6454 0.7471 15.3477 0.4768 15.1314 0.4227 15.0244 0.4229 14.8621 0.3688 13.5239 0.1255 12.3676-0.0265 11.2575 0.004ZM16.3002 14.3827C16.3057 14.0549 16.2948 13.727 16.2676 13.4003 16.2135 12.6973 15.0784 11.9403 13.5644 11.5617 12.9764 11.4281 12.388 11.3475 11.8196 11.3261 11.2806 11.3124 10.7539 11.3509 10.265 11.4538 9.0214 11.7242 8.0488 12.3731 7.454 13.3463L7.5051 14.7773C8.1723 14.4215 9.2377 13.9026 10.6441 13.7779 10.7103 13.772 10.7809 13.772 10.8485 13.768 10.9662 13.755 11.1152 13.724 11.2929 13.724 12.9004 13.724 14.5611 14.2576 16.1696 15.3723 16.2086 15.0979 16.2307 14.8233 16.2406 14.5489L16.2846 14.5716C16.2874 14.5094 16.2989 14.4448 16.3002 14.3828ZM11.256 0.0578C11.3799 0.0544 11.5098 0.0678 11.635 0.0692 11.405 0.067 11.1762 0.0718 10.9479 0.0848 11.0509 0.0787 11.1525 0.0606 11.2559 0.0578ZM11.7543 0.0734C12.4095 0.0874 13.0798 0.1445 13.793 0.2537 13.1096 0.155 12.4284 0.0866 11.7543 0.0734ZM10.4396 0.1288C10.3636 0.1375 10.2869 0.1421 10.2111 0.1529 9.3943 0.2696 8.4369 0.8544 7.4611 1.1979 7.8156 1.0656 8.1754 0.9022 8.5358 0.7478 9.0765 0.4774 9.6705 0.207 10.1571 0.1529 10.251 0.139 10.3457 0.1396 10.4396 0.1288ZM10.2111 0.3688C10.3733 0.3688 10.5898 0.3686 10.752 0.4227 10.6095 0.387 10.4925 0.3967 10.3814 0.4085 10.4896 0.416466 10.5961 0.439384 10.698 0.4766 11.2776 1.4778 10.2716 5.7557 10.0194 8.6258 10.1753 9.6534 10.3332 10.6221 10.4822 11.3459 9.7793 9.5616 9.0755 6.4249 8.9674 3.9919 8.9134 3.0186 8.9684 2.1533 9.1846 1.5045 9.401 0.8557 9.7244 0.4228 10.2111 0.3687ZM13.3472 0.6398C12.5362 2.7486 12.4288 6.749 12.3747 7.9926 12.3207 8.5333 12.3746 9.7226 12.4287 10.5878 12.4287 10.8041 12.4827 11.0203 12.4827 11.2366 12.4827 11.0203 12.4287 10.858 12.4287 10.6418 11.9961 7.3976 11.4547 3.5056 13.3472 0.6398ZM16.6992 1.0175C16.4288 3.1803 15.2945 4.2085 14.916 6.3173 14.8079 7.9935 14.591 9.9395 14.537 11.6157 14.4829 9.9395 14.5363 8.1556 14.8067 6.3713 15.077 4.5329 15.6718 2.6937 16.6992 1.0175ZM6.3182 1.4505C5.9601 1.5699 5.6862 1.6985 5.4607 1.831 5.6924 1.6952 5.9603 1.5644 6.3182 1.4505ZM6.5283 1.6479C6.7438 1.6504 6.9667 1.7213 7.1289 1.8836 7.1222 1.8796 7.1211 1.8803 7.1147 1.8765 7.2478 1.9694 7.3813 2.0858 7.5079 2.2612 7.3043 3.2285 7.7632 5.2929 7.5477 6.9306 7.624 8.4791 7.6194 10.111 8.3967 11.39 7.4171 9.8793 7.2207 7.9525 7.0749 6.154 6.9621 5.0633 6.8714 4.0571 6.6107 3.2507 6.4667 2.946 6.3423 2.6762 6.2274 2.4287 6.2027 2.3918 6.1827 2.3503 6.1564 2.3152 6.0482 2.207 5.9945 2.0456 5.9945 1.9375 5.9945 1.8835 6.0484 1.7757 6.1025 1.7757 6.1565 1.7216 6.2641 1.7204 6.3182 1.6663 6.3874 1.65287 6.45782 1.64671 6.5283 1.6479ZM5.1824 2.2612C5.122 2.2813 5.0901 2.3022 5.0419 2.3222 5.2187 2.2882 5.4036 2.3561 5.5615 2.6402 5.3738 3.5318 5.9979 6.0087 5.9903 7.7442 6.3027 9.592 6.5399 11.594 7.5619 12.8594 6.3723 11.5076 5.886 9.1286 5.5076 7.128 5.183 5.56 4.9125 4.2086 4.3718 3.776 4.3178 3.6679 4.2639 3.613 4.2639 3.5049 4.2639 3.3427 4.2637 3.1263 4.3718 2.91 4.0946 3.5437 3.9671 4.1773 4.0012 4.811 3.9567 4.1623 4.0869 3.5205 4.3718 2.91 4.3718 2.856 4.4258 2.8562 4.4258 2.8021 4.4378 2.7861 4.4572 2.7672 4.4698 2.751 4.5316 2.6527 4.6006 2.562 4.6955 2.494 4.7512 2.4325 4.792 2.3749 4.8545 2.3123 4.8019 2.3678 4.7673 2.4215 4.721 2.477 4.7483 2.459 4.7733 2.4402 4.8048 2.4245 4.9129 2.3163 5.0202 2.2612 5.1824 2.2612ZM4.8048 2.4245C4.801 2.432 4.7972 2.4356 4.7934 2.4429 4.8059 2.433 4.8176 2.4221 4.8304 2.4131 4.823 2.4168 4.8122 2.4208 4.8048 2.4245ZM19.5656 3.5588C19.5639 3.564 19.5616 3.5692 19.5599 3.5744 19.5977 3.5694 19.635 3.5571 19.6734 3.5588 19.6356 3.5566 19.5971 3.5691 19.5584 3.5787 18.695 6.2205 17.671 8.8631 16.6466 11.5049 16.6462 11.5059 16.6457 11.5068 16.6451 11.5077 16.5577 11.9729 16.4111 12.3919 16.1056 12.6975 16.5382 12.2108 16.591 11.5068 16.6451 10.6417 16.6991 9.8307 16.6995 8.9656 17.1321 8.1004 17.1321 8.0473 17.1333 7.9946 17.1846 7.9414 17.1849 7.9405 17.1858 7.9395 17.1861 7.9386 17.2834 7.5862 17.3881 7.2501 17.5027 6.9206 17.921 5.631 18.6423 3.7553 19.5158 3.5801 19.5321 3.5749 19.5498 3.5621 19.5655 3.5588ZM8.3726 16.2113 8.0488 16.3192C8.2111 16.5355 8.3184 16.6982 8.4265 16.7522 8.5346 16.8062 8.6433 16.8602 8.8055 16.8602 8.8596 16.8602 8.9673 16.8602 9.0214 16.8062L9.8334 16.5364C9.8875 16.5364 9.9412 16.4824 9.9953 16.4824 10.1034 16.4824 10.1569 16.4824 10.265 16.5364L10.5362 16.8062 10.8059 16.7522C10.6978 16.59 10.5364 16.4286 10.4283 16.3746 10.3201 16.3205 10.2114 16.2652 10.0493 16.2652L9.9413 16.2652 9.0753 16.5904 8.9135 16.5904C8.8053 16.5904 8.6978 16.5904 8.6437 16.5364 8.5897 16.4824 8.4807 16.3735 8.3725 16.2113ZM5.7773 16.7523C5.507 16.9144 5.1283 17.1847 4.5876 17.401 4.0469 17.6173 3.6142 17.8335 3.3979 18.0498 3.1816 18.2661 3.0742 18.4824 3.0742 18.6986 3.0742 18.8068 3.1279 18.8618 3.236 18.9158 3.29 18.9699 3.3992 18.9697 3.4532 19.0238 4.2102 19.3482 4.9665 19.7257 5.6694 20.1041 5.7776 20.1582 5.8865 20.2673 5.9406 20.3214 5.9946 20.3754 6.0484 20.3754 6.1024 20.3754 6.2106 20.3754 6.3719 20.3216 6.4801 20.2134 6.5882 20.1054 6.6433 19.9964 6.6433 19.8884 6.6433 19.7802 6.5883 19.7266 6.4801 19.6726 6.4801 19.6726 6.0473 19.4561 5.2903 19.1316 4.8037 18.9154 4.3724 18.699 4.102 18.5368 4.2643 18.2664 4.588 18.0503 5.0746 17.834 5.6153 17.6177 5.9942 17.4014 6.1564 17.2392 6.2104 17.1851 6.2104 17.1314 6.2104 17.0773 6.2104 17.0233 6.1565 16.9142 6.1024 16.8601 6.0484 16.8061 5.9394 16.7522 5.8313 16.7522ZM17.0243 16.7523C16.9703 16.7523 16.8625 16.806 16.8085 16.8601 16.7544 16.9682 16.6992 17.0233 16.6992 17.0773L16.6992 17.1313C16.8614 17.2935 17.0789 17.4008 17.4033 17.5089 17.6737 17.5629 17.9436 17.6721 18.214 17.7261 18.5384 17.8343 18.7547 17.9954 18.8628 18.2117L18.8628 18.267C18.8628 18.3211 18.754 18.4286 18.5377 18.5368 18.4295 18.5908 18.2132 18.7535 17.9428 18.9698 17.6725 19.132 17.5102 19.2934 17.348 19.3474 17.1317 19.4556 16.9704 19.5644 16.9164 19.6726 16.8623 19.7266 16.8624 19.7803 16.8624 19.8344 16.8624 19.9425 16.9163 19.9421 16.9704 20.0502 17.0244 20.1583 17.132 20.1595 17.1861 20.1595 17.2401 20.1595 17.2939 20.1041 17.348 20.1041 17.6183 19.9419 17.9972 19.7259 18.4298 19.3474 18.9164 18.969 19.2953 18.699 19.5116 18.5368 19.7279 18.4286 19.8353 18.3199 19.8353 18.1578 19.8353 18.1037 19.8355 17.996 19.7274 17.9419 19.3489 17.5094 18.8089 17.2397 18.16 17.0234 18.0519 16.9693 17.8896 16.9142 17.5652 16.8601 17.403 16.8061 17.2403 16.7522 17.1322 16.7522ZM14.05 17.5629C13.7796 17.5629 13.5634 17.6179 13.4012 17.7801 13.1849 17.9423 13.1313 18.2124 13.1854 18.5368 13.1854 18.8071 13.2929 19.0233 13.4551 19.2395 13.6173 19.4558 13.8337 19.5647 14.05 19.5647 14.2122 19.5647 14.3208 19.5094 14.483 19.4553 14.7533 19.2931 14.862 19.0234 14.862 18.5368 14.862 18.1583 14.753 17.8883 14.5909 17.7261 14.4287 17.618 14.2663 17.5629 14.0499 17.5629ZM9.5623 17.6169C9.2919 17.6169 9.0757 17.6719 8.9135 17.834 8.6972 17.9962 8.6435 18.2663 8.6977 18.5907 8.6977 18.8611 8.8052 19.0772 8.9674 19.2935 9.1296 19.5098 9.346 19.6186 9.5623 19.6186 9.7245 19.6186 9.8331 19.5634 9.9953 19.5093 10.2656 19.3471 10.3729 19.0773 10.3729 18.5907 10.3729 18.1582 10.2654 17.8882 10.1032 17.7801 9.941 17.6719 9.7785 17.6168 9.5622 17.6168ZM9.5623 18.267C9.7245 18.267 9.8334 18.3746 9.8334 18.5368 9.8334 18.699 9.6704 18.8065 9.5623 18.8065 9.4001 18.8065 9.2925 18.699 9.2925 18.5368 9.2925 18.3746 9.4001 18.267 9.5623 18.267ZM13.9421 18.321C14.1043 18.321 14.2132 18.4285 14.2132 18.5907 14.2132 18.6989 14.1042 18.8605 13.9421 18.8605 13.7799 18.8605 13.6723 18.7529 13.6723 18.5907 13.6723 18.4285 13.7799 18.321 13.9421 18.321ZM11.2389 20.4293 11.4008 20.753C11.4548 20.8611 11.5084 20.916 11.6166 21.0241 11.6706 21.0781 11.7796 21.186 11.8878 21.186L11.9956 21.186C12.1038 21.186 12.1574 21.186 12.2114 21.132 12.2655 21.078 12.3746 21.0782 12.4287 21.0241L12.5905 20.8623C12.6445 20.8083 12.6985 20.7531 12.6985 20.699 12.7525 20.645 12.7522 20.5912 12.8063 20.5372 12.8063 20.4831 12.8603 20.4292 12.8603 20.4292 12.8062 20.5374 12.6985 20.6448 12.6445 20.753 12.5363 20.807 12.4829 20.9162 12.3747 20.9162 12.2666 20.9703 12.1577 20.9702 12.0496 20.9702 11.9415 20.9702 11.8339 20.9703 11.7799 20.9162 11.6717 20.9162 11.6167 20.8624 11.5626 20.8083L11.4008 20.6451C11.3468 20.591 11.293 20.4833 11.2389 20.4293ZM10.3729 21.4571C9.2374 21.4571 8.5352 22.9707 6.9131 21.619 6.4805 24.2684 9.6714 24.485 11.0231 23.3496 11.9423 22.5386 11.6706 21.4031 10.3729 21.4571ZM13.2393 21.4571C11.9416 21.4031 11.6713 22.5386 12.5905 23.3496 13.9423 24.4851 17.1317 24.2684 16.6992 21.619 15.0771 22.9707 14.4289 21.4571 13.2393 21.4571Z" fill="#EA728C"/></svg>