<svg viewBox="0 0 24 24" xmlns="http://www.w3.org/2000/svg" xmlns:xlink="http://www.w3.org/1999/xlink" overflow="hidden"><path d="M4.5 7.5C5.328 7.5 6 8.172 6 9L6 19.5C6 20.328 5.328 21 4.5 21L1.5 21C0.673 21 0 20.328 0 19.5L0 9C0 8.172 0.673 7.5 1.5 7.5L4.5 7.5ZM13.5 3C14.328 3 15 3.672 15 4.5L15 19.5C15 20.328 14.328 21 13.5 21L10.5 21C9.673 21 9 20.328 9 19.5L9 4.5C9 3.672 9.673 3 10.5 3L13.5 3ZM22.5 10.5C23.328 10.5 24 11.172 24 12L24 19.5C24 20.328 23.328 21 22.5 21L19.5 21C18.672 21 18 20.328 18 19.5L18 12C18 11.172 18.672 10.5 19.5 10.5L22.5 10.5Z" fill="#EA728C"/></svg>