<svg viewBox="0 0 24 24" xmlns="http://www.w3.org/2000/svg" xmlns:xlink="http://www.w3.org/1999/xlink" overflow="hidden"><path d="M24 5.457 24 19.366C24 20.27 23.268 21.002 22.364 21.002L18.545 21.002 18.545 11.73 12 16.64 5.455 11.73 5.455 21.003 1.636 21.003C0.732462 21.003-9.9639e-08 20.2705-2.6843e-07 19.367-2.68492e-07 19.3667-1.66618e-07 19.3663 3.71933e-08 19.366L0 5.457C0 3.434 2.309 2.279 3.927 3.493L5.455 4.64 12 9.548 18.545 4.638 20.073 3.493C21.69 2.28 24 3.434 24 5.457Z" fill="#EA728C"/></svg>