<svg viewBox="0 0 24 24" xmlns="http://www.w3.org/2000/svg" xmlns:xlink="http://www.w3.org/1999/xlink" overflow="hidden"><path d="M13.483 0C13.1171 0.0121434 12.7712 0.169804 12.522 0.438L7.116 6.226 3.262 10.352C2.7007 10.9497 2.28671 11.6701 2.053 12.456 2.00292 12.6248 1.9612 12.796 1.928 12.969 1.77816 13.7516 1.79931 14.5573 1.99 15.331 2.07476 15.68 2.19159 16.0205 2.339 16.348 2.64471 17.0285 3.0759 17.6452 3.61 18.166L7.887 22.359 7.926 22.397C10.174 24.562 13.778 24.53 15.989 22.323L18.385 19.931C18.925 19.391 18.925 18.517 18.388 17.976 17.8513 17.4364 16.9788 17.4341 16.4392 17.9708 16.4385 17.9715 16.4377 17.9723 16.437 17.973L14.041 20.365C12.8796 21.5112 11.0179 21.5281 9.836 20.403L9.816 20.384 5.54 16.191C4.888 15.551 4.568 14.722 4.592 13.928 4.59676 13.7519 4.61887 13.5767 4.658 13.405 4.75851 12.9694 4.97201 12.5679 5.277 12.241L9.13 8.114C10.188 6.98 12.334 6.844 13.56 7.836L17.061 10.667C17.654 11.147 18.522 11.054 19.001 10.46 19.4791 9.8659 19.3865 8.99704 18.794 8.517L15.294 5.686C14.494 5.039 13.528 4.641 12.52 4.484L14.535 2.326C15.0555 1.76629 15.0238 0.890562 14.4641 0.370013 14.1982 0.122773 13.8459-0.0101123 13.483-2.74213e-08ZM10.617 12.815C9.85485 12.815 9.237 13.4328 9.237 14.195 9.237 14.1957 9.237 14.1963 9.237 14.197 9.2359 14.9592 9.85285 15.5779 10.615 15.579 10.6157 15.579 10.6163 15.579 10.617 15.579L20.79 15.579C21.5522 15.579 22.17 14.9612 22.17 14.199 22.17 14.1983 22.17 14.1977 22.17 14.197 22.1711 13.4348 21.5542 12.8161 20.792 12.815 20.7913 12.815 20.7907 12.815 20.79 12.815Z" fill="#EA728C"/></svg>